{"title":"Captain America Civil War 2016 HDCAM x264-Exclusive","uid":14504083,"size":2008612296,"categoryP":"video","categoryS":"movies","magnet":"?xt=urn:btih:5864deda0378a88a80d48c6bbf2b00fb6be2dbbf&amp;dn=Captain+America+Civil+War+2016+HDCAM+x264-Exclusive&amp;tr=udp%3A%2F%2Ftracker.leechers-paradise.org%3A6969&amp;tr=udp%3A%2F%2Fzer0day.ch%3A1337&amp;tr=udp%3A%2F%2Fopen.demonii.com%3A1337&amp;tr=udp%3A%2F%2Ftracker.coppersurfer.tk%3A6969&amp;tr=udp%3A%2F%2Fexodus.desync.com%3A6969","seeders":4,"leechers":3,"uploader":"xxxlavalxxx","files":3,"time":1462219224,"description":"http://extraimago.com/image/alep\r\n \nhttp://www.imdb.com/title/tt3498820/\r\n\r\n\r\nPolitical interference in the Avengers' activities causes a rift between former allies Captain America and Iron Man.\r\n\r\nDirectors: Anthony Russo, Joe Russo\r\nWriters: Christopher Markus (screenplay), Stephen McFeely (screenplay)\r\nStars: Chris Evans, Robert Downey Jr., Scarlett Johansson \r\nGenres: Action | Adventure | Sci-Fi\r\nCountry: USA\r\nLanguage: English | German | Russian | Romanian\r\n\r\n\r\nCaptain America Civil War 2016 HDCAM x264-Exclusive\r\n\r\nLanguage: English\r\nSource: latino\r\nSample: yes\r\n\r\n\r\nFormat                      : Matroska\r\nFormat version              : Version 4 / Version 2\r\nFile size                   : 1.86 GiB\r\nDuration                    : 2h 17mn\r\nOverall bit rate            : 1 925 Kbps\r\nEncoded date                : UTC 2016-05-02 16:28:34\r\nWriting application         : mkvmerge v9.0.1 ('Obstacles') 32bit\r\nWriting library             : libebml v1.3.3 + libmatroska v1.4.4\r\n\r\nVideo\r\nID                          : 1\r\nFormat                      : AVC\r\nFormat/Info                 : Advanced Video Codec\r\nFormat profile              :   \r\nFormat settings, CABAC      : Yes\r\nFormat settings, ReFrames   : 4 frames\r\nCodec ID                    : V_MPEG4/ISO/AVC\r\nDuration                    : 2h 17mn\r\nBit rate                    : 1 800 Kbps\r\nWidth                       : 720 pixels\r\nHeight                      : 400 pixels\r\nDisplay aspect ratio        : 16:9\r\nFrame rate mode             : Constant\r\nFrame rate                  : 29.970 (30000/1001) fps\r\nColor space                 : YUV\r\nChroma subsampling          : 4:2:0\r\nBit depth                   : 8 bits\r\nScan type                   : Progressive\r\nBits/(Pixel*Frame)          : 0.209\r\nStream size                 : 1.73 GiB (93%)\r\n\r\nAudio\r\nID                          : 2\r\nFormat                      : AAC\r\nFormat/Info                 : Advanced Audio Codec\r\nFormat profile              : LC\r\nCodec ID                    : A_AAC\r\nDuration                    : 2h 17mn\r\nBit rate                    : 132 Kbps\r\nChannel(s)                  : 2 channels\r\nChannel positions           : Front: L R\r\nSampling rate               : 44.1 KHz\r\nFrame rate                  : 43.066 fps (1024 spf)\r\nCompression mode            : Lossy\r\nDelay relative to video     : 800ms\r\nStream size                 : 129 MiB (7%)\r\nDefault                     : Yes\r\nForced                      : No\r\n\r\n \nhttp://extraimago.com/image/aler \nhttp://extraimago.com/image/aleG \nhttp://extraimago.com/image/aleP \nhttp://extraimago.com/image/aleX \nhttp://extraimago.com/image/aleg \nhttp://extraimago.com/image/ale5 \nhttp://extraimago.com/image/aleD \nhttp://extraimago.com/image/aleF \nhttp://extraimago.com/image/aleH \nhttp://extraimago.com/image/alek \nhttp://extraimago.com/image/aleo","torrent":{"xt":"urn:btih:5864deda0378a88a80d48c6bbf2b00fb6be2dbbf","amp;dn":"Captain+America+Civil+War+2016+HDCAM+x264-Exclusive","amp;tr":["udp%3A%2F%2Ftracker.leechers-paradise.org%3A6969","udp%3A%2F%2Fzer0day.ch%3A1337","udp%3A%2F%2Fopen.demonii.com%3A1337","udp%3A%2F%2Ftracker.coppersurfer.tk%3A6969","udp%3A%2F%2Fexodus.desync.com%3A6969"],"infoHash":"5864deda0378a88a80d48c6bbf2b00fb6be2dbbf","infoHashBuffer":{"type":"Buffer","data":[88,100,222,218,3,120,168,138,128,212,140,107,191,43,0,251,107,226,219,191]},"announce":[],"urlList":[]}}